<svg width="23" height="22" viewBox="0 0 23 22" fill="none" xmlns="http://www.w3.org/2000/svg">
  <path
    d="M11.5455 17.5726C7.81089 17.5726 6.1046 15.7245 6.1046 14.369C6.10409 14.0456 6.24071 13.7363 6.48231 13.5139C6.72391 13.2914 7.04916 13.1755 7.38154 13.1933C8.98049 13.1933 8.56225 15.5232 11.5455 15.5232C13.0704 15.5232 13.9661 14.6315 13.9661 13.7937C13.9661 13.2904 13.67 12.7151 12.6633 12.485L9.33211 11.6688C6.65609 11.0072 6.18973 9.56179 6.18973 8.22066C6.18973 5.43772 8.81023 4.43097 11.3049 4.43097C13.6034 4.43097 16.3349 5.66424 16.3349 7.33256C16.3349 8.05167 15.7168 8.43639 14.9988 8.43639C13.633 8.43639 13.8625 6.57391 11.1161 6.57391C9.75036 6.57391 9.03231 7.19593 9.03231 8.06605C9.03231 8.93617 10.0946 9.231 11.0273 9.42876L13.4849 9.96809C16.1795 10.5578 16.8975 12.093 16.8975 13.5636C16.8975 15.8252 15.095 17.5726 11.5418 17.5726H11.5455ZM21.8572 12.787C21.9639 12.1934 22.0172 11.5918 22.0164 10.9892C22.0295 7.96218 20.6603 5.08531 18.278 3.13409C15.8956 1.18286 12.7454 0.358122 9.67633 0.882186C8.73302 0.354589 7.66315 0.0780199 6.57466 0.0803831C4.34042 0.0936416 2.28098 1.25687 1.16387 3.13654C0.0467566 5.01622 0.03953 7.3304 1.14488 9.21662C0.528105 12.5088 1.60852 15.8859 4.03763 18.2585C6.46674 20.6311 9.93717 21.699 13.3295 21.1178C14.2717 21.645 15.3402 21.9215 16.4275 21.9196C18.6606 21.9056 20.7187 20.7429 21.8356 18.8644C22.9525 16.9858 22.9607 14.673 21.8572 12.787Z"
    fill="#F2F2F2" />
</svg>