<svg width="19" height="16" viewBox="0 0 19 16" fill="none" xmlns="http://www.w3.org/2000/svg">
  <path fill-rule="evenodd" clip-rule="evenodd"
    d="M1.69544 6.82058C6.65128 4.6614 9.95596 3.23794 11.6095 2.55019C16.3305 0.586531 17.3115 0.245423 17.9509 0.234159C18.0916 0.231682 18.406 0.266534 18.6097 0.431807C18.7817 0.57136 18.829 0.759876 18.8516 0.892188C18.8743 1.0245 18.9025 1.32591 18.8801 1.56142C18.6242 4.24952 17.5172 10.7728 16.9541 13.7835C16.7157 15.0575 16.2465 15.4846 15.7923 15.5264C14.805 15.6173 14.0554 14.874 13.0992 14.2472C11.603 13.2664 10.7577 12.6559 9.30538 11.6988C7.62694 10.5928 8.715 9.98486 9.67154 8.99136C9.92187 8.73136 14.2716 4.77495 14.3558 4.41605C14.3663 4.37116 14.3761 4.20384 14.2767 4.11549C14.1773 4.02714 14.0306 4.05735 13.9247 4.08138C13.7746 4.11544 11.3844 5.69529 6.754 8.82094C6.07554 9.28682 5.46101 9.51381 4.91041 9.50192C4.30343 9.48881 3.13582 9.15872 2.26783 8.87657C1.20321 8.5305 0.357062 8.34754 0.430742 7.75981C0.469119 7.45368 0.890684 7.1406 1.69544 6.82058Z"
    fill="#F2F2F2" />
</svg>