<svg width="22" height="24" viewBox="0 0 22 24" fill="none" version="1.1" id="svg8" sodipodi:docname="tiktok.svg"
   inkscape:version="1.1.2 (0a00cf5339, 2022-02-04)" xmlns:inkscape="http://www.inkscape.org/namespaces/inkscape"
   xmlns:sodipodi="http://sodipodi.sourceforge.net/DTD/sodipodi-0.dtd" xmlns="http://www.w3.org/2000/svg"
   xmlns:svg="http://www.w3.org/2000/svg">
   <defs id="defs12" />
   <sodipodi:namedview id="namedview10" pagecolor="#ffffff" bordercolor="#666666" borderopacity="1.0"
      inkscape:pageshadow="2" inkscape:pageopacity="0.0" inkscape:pagecheckerboard="0" showgrid="false"
      inkscape:zoom="17.104167" inkscape:cx="12.950061" inkscape:cy="11.926918" inkscape:window-width="1920"
      inkscape:window-height="1007" inkscape:window-x="1920" inkscape:window-y="0" inkscape:window-maximized="1"
      inkscape:current-layer="svg8" />
   <g id="g96" transform="translate(0.887127,0.475997)">
      <path
         d="M 14.6003,7.73913 C 16.1312,8.837 18.0059,9.483 20.0307,9.483 V 6.4048 C 18.9004,6.16319 17.8999,5.57044 17.1475,4.74596 15.8598,3.93953 14.932,2.60912 14.66,1.05197 H 11.8213 V 16.6714 c -0.0065,1.8209 -1.479,3.2953 -3.29481,3.2953 -1.07006,0 -2.0207,-0.5119 -2.62276,-1.3049 -1.0751,-0.5445 -1.81236,-1.6625 -1.81236,-2.9535 0,-1.826 1.47493,-3.3065 3.29469,-3.3065 0.34866,0 0.68471,0.0545 0.99994,0.1549 V 9.44486 C 4.4781,9.52589 1.33521,12.7304 1.33521,16.6714 c 0,1.9674 0.78265,3.7509 2.0529,5.054 1.14596,0.7722 2.52547,1.2226 4.00967,1.2226 3.97782,0 7.20262,-3.2363 7.20262,-7.2284 V 7.73913 Z"
         fill="#f2f2f2" id="path4" />
      <path
         d="M 20.0308,6.40482 V 5.5725 c -1.0192,0.00155 -2.0184,-0.2849 -2.8832,-0.8266 0.7655,0.84106 1.7735,1.42099 2.8832,1.65892 z M 14.6601,1.05199 C 14.6341,0.903168 14.6142,0.753366 14.6004,0.602993 V 0.100006 H 10.6808 V 15.7196 c -0.0062,1.8206 -1.47863,3.295 -3.29465,3.295 -0.53316,0 -1.03655,-0.127 -1.48233,-0.3527 0.60205,0.7929 1.55269,1.3047 2.62275,1.3047 1.81573,0 3.28843,-1.4742 3.29473,-3.2951 V 1.05199 Z M 8.38624,9.44488 V 8.55881 C 8.05873,8.51389 7.72854,8.49134 7.39794,8.49151 3.41976,8.49142 0.194946,11.7277 0.194946,15.7196 c 0,2.5026 1.267404,4.7082 3.193334,6.0057 -1.27026,-1.3031 -2.05291,-3.0867 -2.05291,-5.0539 0,-3.941 3.14281,-7.1455 7.05087,-7.22652 z"
         fill="#f2f2f2" id="path6" />
   </g>
</svg>