<svg width="130px" height="69px" version="1.1" xmlns="http://www.w3.org/2000/svg"
  xmlns:xlink="http://www.w3.org/1999/xlink" xml:space="preserve" xmlns:serif="http://www.serif.com/"
  style="fill-rule:evenodd;clip-rule:evenodd;stroke-linecap:round;stroke-linejoin:round;stroke-miterlimit:1.5;">
  <g transform="matrix(1,0,0,1,-8,-3)">
    <g transform="matrix(1,0,0,1,8.834,3.74162)">
      <g transform="matrix(0.901962,0,0,0.901962,0.562933,0.922689)">
        <path
          d="M61.395,22.564L115.121,8.207L116.693,5.408L129.63,1.606L135.086,9.034C135.086,9.034 135.097,9.614 135.111,10.273C135.12,10.748 134.924,11.205 134.572,11.524C134.221,11.844 133.748,11.996 133.276,11.941C132.363,11.835 131.46,11.731 131.46,11.731C131.46,11.731 128.76,9.677 126.997,8.337C126.06,7.624 124.841,7.398 123.711,7.727C113.099,10.816 59.068,26.545 59.068,26.545C55.314,27.605 55.853,27.242 50.055,24.38C50.055,24.38 42.531,22.213 42.146,30.765C41.863,37.055 36.797,36.306 30.592,35.243C21.058,33.609 18.053,54.671 31.838,55.971C15.166,63.152 3.184,41.671 1.207,37.5C-2.979,28.668 1.322,21.211 1.322,21.211C1.322,21.211 6.301,10.499 26.216,18.797C33.523,21.842 39.192,15.78 39.192,15.78C47.918,4.222 58.521,4.074 56.542,18.345C55.683,24.539 61.395,22.564 61.395,22.564Z"
          style="fill:rgb(63,63,63);stroke:rgb(63,63,63);stroke-width:1.11px;" />
      </g>
      <g transform="matrix(1,0,0,1,-6.59384,-2.40766)">
        <path d="M114.087,8.399L113.121,6.082" style="fill:none;stroke:rgb(63,63,63);stroke-width:0.52px;" />
      </g>
      <g transform="matrix(1,0,0,1,-2.44095,-3.71041)">
        <path d="M114.087,8.399L113.121,6.082" style="fill:none;stroke:rgb(63,63,63);stroke-width:0.52px;" />
      </g>
      <g transform="matrix(1,0,0,1,1.46474,-4.84751)">
        <path d="M114.087,8.399L113.121,6.082" style="fill:none;stroke:rgb(63,63,63);stroke-width:0.52px;" />
      </g>
      <g transform="matrix(0.943509,-0.331347,0.331347,0.943509,7.43606,33.2398)">
        <path
          d="M104.804,4.335C104.804,4.143 104.649,3.988 104.457,3.988L102.383,3.988C102.192,3.988 102.036,4.143 102.036,4.335L102.036,4.799C102.036,4.991 102.192,5.146 102.383,5.146L104.457,5.146C104.649,5.146 104.804,4.991 104.804,4.799L104.804,4.335Z"
          style="fill:rgb(63,63,63);stroke:rgb(63,63,63);stroke-width:0.52px;" />
      </g>
      <g transform="matrix(0.943509,-0.331347,0.331347,0.943509,11.589,32.1027)">
        <path
          d="M104.804,4.335C104.804,4.143 104.649,3.988 104.457,3.988L102.383,3.988C102.192,3.988 102.036,4.143 102.036,4.335L102.036,4.799C102.036,4.991 102.192,5.146 102.383,5.146L104.457,5.146C104.649,5.146 104.804,4.991 104.804,4.799L104.804,4.335Z"
          style="fill:rgb(63,63,63);stroke:rgb(63,63,63);stroke-width:0.52px;" />
      </g>
      <g transform="matrix(0.943509,-0.331347,0.331347,0.943509,15.4492,30.8687)">
        <path
          d="M104.804,4.335C104.804,4.143 104.649,3.988 104.457,3.988L102.383,3.988C102.192,3.988 102.036,4.143 102.036,4.335L102.036,4.799C102.036,4.991 102.192,5.146 102.383,5.146L104.457,5.146C104.649,5.146 104.804,4.991 104.804,4.799L104.804,4.335Z"
          style="fill:rgb(63,63,63);stroke:rgb(63,63,63);stroke-width:0.52px;" />
      </g>
      <g transform="matrix(0.923754,0,0,0.923754,-16.2034,-3.2413)">
        <g transform="matrix(23.8323,0,0,23.8323,51.2659,56.9)">
          <path
            d="M0.597,-0.373L0.597,-0.049C0.552,-0.026 0.51,-0.01 0.471,-0.001C0.433,0.009 0.393,0.014 0.352,0.014C0.243,0.014 0.164,-0.016 0.113,-0.077C0.062,-0.137 0.037,-0.218 0.037,-0.321C0.037,-0.4 0.051,-0.465 0.08,-0.516C0.109,-0.567 0.147,-0.604 0.196,-0.627C0.245,-0.65 0.3,-0.662 0.362,-0.662C0.403,-0.662 0.442,-0.657 0.479,-0.647C0.516,-0.636 0.551,-0.621 0.582,-0.601L0.524,-0.5C0.473,-0.53 0.421,-0.545 0.368,-0.545C0.306,-0.545 0.26,-0.526 0.229,-0.489C0.198,-0.451 0.183,-0.397 0.183,-0.327C0.183,-0.253 0.197,-0.198 0.226,-0.162C0.255,-0.125 0.301,-0.107 0.363,-0.107C0.399,-0.107 0.43,-0.112 0.459,-0.123L0.459,-0.258L0.321,-0.258L0.337,-0.373L0.597,-0.373Z"
            style="fill:rgb(63,63,63);fill-rule:nonzero;" />
        </g>
        <g transform="matrix(23.8323,0,0,23.8323,66.7092,56.9)">
          <path
            d="M0.338,0.014C0.273,0.014 0.219,0.002 0.177,-0.023C0.135,-0.047 0.105,-0.08 0.086,-0.122C0.067,-0.163 0.057,-0.211 0.057,-0.264L0.057,-0.648L0.195,-0.648L0.195,-0.281C0.195,-0.225 0.206,-0.182 0.229,-0.151C0.252,-0.119 0.291,-0.104 0.347,-0.104C0.401,-0.104 0.438,-0.119 0.46,-0.151C0.482,-0.182 0.493,-0.222 0.493,-0.271L0.493,-0.648L0.631,-0.648L0.631,-0.267C0.631,-0.201 0.618,-0.147 0.593,-0.106C0.568,-0.064 0.533,-0.034 0.49,-0.015C0.446,0.004 0.395,0.014 0.338,0.014Z"
            style="fill:rgb(63,63,63);fill-rule:nonzero;" />
        </g>
        <g transform="matrix(23.8323,0,0,23.8323,83.1058,56.9)">
          <rect x="0.075" y="-0.648" width="0.138" height="0.648" style="fill:rgb(63,63,63);fill-rule:nonzero;" />
        </g>
        <g transform="matrix(23.8323,0,0,23.8323,89.898,56.9)">
          <path
            d="M0.564,-0.648L0.564,-0.527L0.358,-0.527L0.358,-0L0.22,-0L0.22,-0.527L0.013,-0.527L0.013,-0.648L0.564,-0.648Z"
            style="fill:rgb(63,63,63);fill-rule:nonzero;" />
        </g>
        <g transform="matrix(23.8323,0,0,23.8323,101.481,56.9)">
          <path
            d="M0.422,-0.648L0.655,-0.008L0.655,-0L0.504,-0L0.452,-0.155L0.212,-0.155L0.161,-0L0.012,-0L0.012,-0.008L0.245,-0.648L0.422,-0.648ZM0.25,-0.269L0.414,-0.269L0.331,-0.516L0.25,-0.269Z"
            style="fill:rgb(63,63,63);fill-rule:nonzero;" />
        </g>
        <g transform="matrix(23.8323,0,0,23.8323,117.4,56.9)">
          <path
            d="M0.585,-0.008L0.585,-0L0.426,-0L0.264,-0.236L0.209,-0.236L0.209,-0L0.071,-0L0.071,-0.648L0.288,-0.648C0.345,-0.648 0.393,-0.639 0.432,-0.622C0.47,-0.604 0.498,-0.58 0.517,-0.55C0.536,-0.519 0.545,-0.485 0.545,-0.446C0.545,-0.401 0.534,-0.362 0.511,-0.329C0.488,-0.296 0.455,-0.271 0.411,-0.255L0.585,-0.008ZM0.209,-0.343L0.271,-0.343C0.312,-0.343 0.344,-0.351 0.366,-0.366C0.388,-0.381 0.399,-0.407 0.399,-0.442C0.399,-0.473 0.389,-0.496 0.369,-0.511C0.35,-0.526 0.322,-0.534 0.287,-0.534L0.209,-0.534L0.209,-0.343Z"
            style="fill:rgb(63,63,63);fill-rule:nonzero;" />
        </g>
      </g>
      <g transform="matrix(0.923754,0,0,0.923754,0.0911972,14.713)">
        <g transform="matrix(23.8323,0,0,23.8323,51.2659,56.9)">
          <path
            d="M0.266,0.011C0.225,0.011 0.185,0.005 0.148,-0.008C0.111,-0.02 0.076,-0.038 0.044,-0.062L0.071,-0.102C0.1,-0.08 0.132,-0.064 0.167,-0.053C0.201,-0.042 0.234,-0.037 0.267,-0.037C0.323,-0.037 0.365,-0.048 0.392,-0.071C0.419,-0.094 0.433,-0.125 0.433,-0.165C0.433,-0.192 0.427,-0.214 0.414,-0.231C0.401,-0.248 0.384,-0.262 0.363,-0.273C0.342,-0.284 0.312,-0.297 0.274,-0.311L0.255,-0.317C0.214,-0.332 0.181,-0.347 0.156,-0.36C0.131,-0.373 0.11,-0.391 0.094,-0.412C0.078,-0.434 0.07,-0.461 0.07,-0.494C0.07,-0.528 0.08,-0.558 0.099,-0.583C0.117,-0.608 0.143,-0.626 0.174,-0.64C0.205,-0.653 0.239,-0.659 0.276,-0.659C0.313,-0.659 0.347,-0.654 0.38,-0.645C0.413,-0.635 0.446,-0.619 0.48,-0.597L0.453,-0.557C0.423,-0.576 0.394,-0.589 0.366,-0.598C0.337,-0.607 0.307,-0.611 0.274,-0.611C0.25,-0.611 0.227,-0.607 0.204,-0.599C0.181,-0.591 0.163,-0.579 0.148,-0.562C0.133,-0.545 0.126,-0.524 0.126,-0.498C0.126,-0.476 0.131,-0.458 0.141,-0.443C0.15,-0.428 0.165,-0.415 0.186,-0.404C0.206,-0.393 0.234,-0.38 0.271,-0.367L0.29,-0.36C0.333,-0.345 0.367,-0.33 0.393,-0.317C0.419,-0.304 0.442,-0.285 0.461,-0.26C0.48,-0.235 0.489,-0.204 0.489,-0.165C0.489,-0.128 0.48,-0.097 0.463,-0.07C0.446,-0.044 0.42,-0.024 0.387,-0.01C0.354,0.004 0.313,0.011 0.266,0.011Z"
            style="fill:rgb(63,63,63);fill-rule:nonzero;" />
        </g>
        <g transform="matrix(23.8323,0,0,23.8323,64.0877,56.9)">
          <path
            d="M0.342,0.011C0.28,0.011 0.227,-0.003 0.184,-0.031C0.14,-0.059 0.107,-0.098 0.085,-0.149C0.063,-0.199 0.052,-0.258 0.052,-0.325C0.052,-0.4 0.066,-0.463 0.093,-0.513C0.12,-0.563 0.156,-0.6 0.2,-0.624C0.244,-0.647 0.292,-0.659 0.343,-0.659C0.382,-0.659 0.418,-0.654 0.451,-0.644C0.484,-0.634 0.516,-0.62 0.548,-0.601L0.523,-0.559C0.494,-0.576 0.466,-0.588 0.439,-0.597C0.411,-0.606 0.38,-0.61 0.344,-0.61C0.293,-0.61 0.25,-0.598 0.214,-0.574C0.179,-0.55 0.152,-0.517 0.135,-0.474C0.117,-0.431 0.108,-0.382 0.108,-0.327C0.108,-0.271 0.117,-0.221 0.134,-0.178C0.151,-0.135 0.178,-0.101 0.213,-0.076C0.248,-0.051 0.291,-0.038 0.343,-0.038C0.377,-0.038 0.41,-0.043 0.439,-0.052C0.469,-0.061 0.499,-0.074 0.529,-0.091L0.552,-0.05C0.484,-0.009 0.414,0.011 0.342,0.011Z"
            style="fill:rgb(63,63,63);fill-rule:nonzero;" />
        </g>
        <g transform="matrix(23.8323,0,0,23.8323,77.6244,56.9)">
          <path
            d="M0.551,-0.648L0.607,-0.648L0.607,-0L0.551,-0L0.551,-0.305L0.153,-0.305L0.153,-0L0.097,-0L0.097,-0.648L0.153,-0.648L0.153,-0.353L0.551,-0.353L0.551,-0.648Z"
            style="fill:rgb(63,63,63);fill-rule:nonzero;" />
        </g>
        <g transform="matrix(23.8323,0,0,23.8323,94.4023,56.9)">
          <path
            d="M0.342,0.011C0.281,0.011 0.228,-0.003 0.185,-0.032C0.142,-0.06 0.109,-0.099 0.086,-0.15C0.063,-0.201 0.052,-0.259 0.052,-0.326C0.052,-0.401 0.066,-0.463 0.094,-0.513C0.121,-0.562 0.158,-0.599 0.203,-0.623C0.248,-0.647 0.296,-0.659 0.349,-0.659C0.41,-0.659 0.463,-0.645 0.506,-0.617C0.549,-0.588 0.582,-0.549 0.605,-0.498C0.628,-0.447 0.639,-0.389 0.639,-0.322C0.639,-0.247 0.625,-0.185 0.598,-0.135C0.571,-0.085 0.535,-0.048 0.49,-0.025C0.445,-0.001 0.395,0.011 0.342,0.011ZM0.343,-0.037C0.394,-0.037 0.438,-0.049 0.474,-0.074C0.51,-0.098 0.537,-0.131 0.555,-0.174C0.574,-0.217 0.583,-0.266 0.583,-0.321C0.583,-0.377 0.574,-0.427 0.557,-0.47C0.54,-0.514 0.514,-0.549 0.479,-0.574C0.444,-0.599 0.401,-0.611 0.35,-0.611C0.298,-0.611 0.254,-0.599 0.218,-0.575C0.181,-0.551 0.154,-0.518 0.136,-0.474C0.117,-0.432 0.108,-0.382 0.108,-0.327C0.108,-0.272 0.117,-0.222 0.134,-0.178C0.151,-0.134 0.178,-0.1 0.213,-0.075C0.248,-0.05 0.291,-0.037 0.343,-0.037Z"
            style="fill:rgb(63,63,63);fill-rule:nonzero;" />
        </g>
        <g transform="matrix(23.8323,0,0,23.8323,110.87,56.9)">
          <path
            d="M0.342,0.011C0.281,0.011 0.228,-0.003 0.185,-0.032C0.142,-0.06 0.109,-0.099 0.086,-0.15C0.063,-0.201 0.052,-0.259 0.052,-0.326C0.052,-0.401 0.066,-0.463 0.094,-0.513C0.121,-0.562 0.158,-0.599 0.203,-0.623C0.248,-0.647 0.296,-0.659 0.349,-0.659C0.41,-0.659 0.463,-0.645 0.506,-0.617C0.549,-0.588 0.582,-0.549 0.605,-0.498C0.628,-0.447 0.639,-0.389 0.639,-0.322C0.639,-0.247 0.625,-0.185 0.598,-0.135C0.571,-0.085 0.535,-0.048 0.49,-0.025C0.445,-0.001 0.395,0.011 0.342,0.011ZM0.343,-0.037C0.394,-0.037 0.438,-0.049 0.474,-0.074C0.51,-0.098 0.537,-0.131 0.555,-0.174C0.574,-0.217 0.583,-0.266 0.583,-0.321C0.583,-0.377 0.574,-0.427 0.557,-0.47C0.54,-0.514 0.514,-0.549 0.479,-0.574C0.444,-0.599 0.401,-0.611 0.35,-0.611C0.298,-0.611 0.254,-0.599 0.218,-0.575C0.181,-0.551 0.154,-0.518 0.136,-0.474C0.117,-0.432 0.108,-0.382 0.108,-0.327C0.108,-0.272 0.117,-0.222 0.134,-0.178C0.151,-0.134 0.178,-0.1 0.213,-0.075C0.248,-0.05 0.291,-0.037 0.343,-0.037Z"
            style="fill:rgb(63,63,63);fill-rule:nonzero;" />
        </g>
        <g transform="matrix(23.8323,0,0,23.8323,127.339,56.9)">
          <path d="M0.153,-0.049L0.482,-0.049L0.482,-0L0.097,-0L0.097,-0.648L0.153,-0.648L0.153,-0.049Z"
            style="fill:rgb(63,63,63);fill-rule:nonzero;" />
        </g>
      </g>
    </g>
  </g>
</svg>