<svg width="22" height="24" viewBox="0 0 22 24" fill="none" xmlns="http://www.w3.org/2000/svg">
<path d="M15.7409 8.69128C17.2713 9.78922 19.1463 10.4352 21.1713 10.4352V6.52463C20.788 6.52471 20.4058 6.4846 20.0309 6.40488V9.48309C18.006 9.48309 16.1313 8.83708 14.6004 7.73921V15.7196C14.6004 19.7118 11.3756 22.9479 7.39785 22.9479C5.91365 22.9479 4.53414 22.4976 3.38818 21.7253C4.6961 23.0674 6.5201 23.9 8.53803 23.9C12.516 23.9 15.741 20.6639 15.741 16.6715V8.69128H15.7409V8.69128ZM17.1477 4.74596C16.3655 3.8884 15.852 2.78016 15.7409 1.55496V1.05197H14.6601C14.9322 2.6092 15.86 3.93961 17.1477 4.74596ZM5.90413 18.6618C5.46712 18.0868 5.23097 17.3834 5.23203 16.6601C5.23203 14.8342 6.70704 13.3537 8.5268 13.3537C8.86594 13.3537 9.20305 13.4058 9.52625 13.5087V9.51069C9.14855 9.45874 8.76735 9.43669 8.38631 9.44478V12.5566C8.06287 12.4537 7.7256 12.4014 7.38638 12.4018C5.56661 12.4018 4.09169 13.8821 4.09169 15.7082C4.09169 16.9994 4.82895 18.1173 5.90413 18.6618Z" fill="black"/>
<path d="M14.6003 7.73913C16.1312 8.837 18.0059 9.483 20.0307 9.483V6.4048C18.9004 6.16319 17.8999 5.57044 17.1475 4.74596C15.8598 3.93953 14.932 2.60912 14.66 1.05197H11.8213V16.6714C11.8148 18.4923 10.3423 19.9667 8.52649 19.9667C7.45643 19.9667 6.50579 19.4548 5.90373 18.6618C4.82863 18.1173 4.09137 16.9993 4.09137 15.7083C4.09137 13.8823 5.5663 12.4018 7.38606 12.4018C7.73472 12.4018 8.07077 12.4563 8.386 12.5567V9.44486C4.4781 9.52589 1.33521 12.7304 1.33521 16.6714C1.33521 18.6388 2.11786 20.4223 3.38811 21.7254C4.53407 22.4976 5.91358 22.948 7.39778 22.948C11.3756 22.948 14.6004 19.7117 14.6004 15.7196V7.73913H14.6003Z" fill="#F2F2F2"/>
<path d="M20.0308 6.40482V5.5725C19.0116 5.57405 18.0124 5.2876 17.1476 4.7459C17.9131 5.58696 18.9211 6.16689 20.0308 6.40482ZM14.6601 1.05199C14.6341 0.903168 14.6142 0.753366 14.6004 0.602993V0.100006H10.6808V15.7196C10.6746 17.5402 9.20217 19.0146 7.38615 19.0146C6.85299 19.0146 6.3496 18.8876 5.90382 18.6619C6.50587 19.4548 7.45651 19.9666 8.52657 19.9666C10.3423 19.9666 11.815 18.4924 11.8213 16.6715V1.05199H14.6601ZM8.38624 9.44488V8.55881C8.05873 8.51389 7.72854 8.49134 7.39794 8.49151C3.41976 8.49142 0.194946 11.7277 0.194946 15.7196C0.194946 18.2222 1.46235 20.4278 3.38828 21.7253C2.11802 20.4222 1.33537 18.6386 1.33537 16.6714C1.33537 12.7304 4.47818 9.5259 8.38624 9.44488Z" fill="#F2F2F2"/>
</svg>
