<?xml version="1.0" encoding="UTF-8" standalone="no"?>
<!DOCTYPE svg PUBLIC "-//W3C//DTD SVG 1.1//EN" "http://www.w3.org/Graphics/SVG/1.1/DTD/svg11.dtd">
<svg width="100%" height="100%" viewBox="0 0 146 75" version="1.1" xmlns="http://www.w3.org/2000/svg" xmlns:xlink="http://www.w3.org/1999/xlink" xml:space="preserve" xmlns:serif="http://www.serif.com/" style="fill-rule:evenodd;clip-rule:evenodd;stroke-linecap:round;stroke-linejoin:round;stroke-miterlimit:1.5;">
    <g>
        <path d="M33.239,58.292C33.357,58.291 33.457,58.205 33.476,58.089C33.496,57.972 33.429,57.859 33.318,57.819C30.137,56.618 22.398,52.935 22.398,45.664C22.398,41.731 23.97,39.228 25.762,37.651C27.646,36.01 30.059,35.106 32.556,35.106C34.426,35.1 36.881,35.1 36.881,35.1C36.881,35.1 42.5,34.514 42.5,28.075C42.5,21.784 53.56,26.707 60.787,26.938C61.072,26.944 61.358,26.928 61.641,26.89C70.038,25.49 122.818,8.405 122.818,8.405C122.818,8.405 127.103,6.569 129.387,10.42C129.72,10.965 130.312,11.297 130.951,11.297C134.904,11.332 135.697,11.332 135.697,11.332C135.697,11.332 132.84,7.523 131.481,5.712C131.021,5.097 130.721,4.378 130.608,3.619C130.474,2.716 130.311,1.615 130.311,1.615L121.296,5.01L117.198,5.01C117.198,5.01 115.612,6.549 114.442,7.685C113.639,8.464 112.648,9.022 111.566,9.305C103.4,11.439 67.51,20.815 61.956,22.266C60.698,22.595 59.359,22.24 58.429,21.329C57.62,20.455 56.901,19.033 56.901,16.601C56.901,10.63 57.838,1.966 38.051,16.835C30.602,22.434 23.878,15.196 10.771,15.196C-6.232,15.196 -1.281,47.51 18.856,58.399C18.856,58.399 29.36,58.321 33.239,58.292Z" style="stroke:black;stroke-width:1px;"/>
        <g transform="matrix(0.880247,0.0338422,-0.0323838,0.842315,14.9138,-4.05048)">
            <g transform="matrix(0.739394,0,0,0.739394,30.4691,1.03046)">
                <circle cx="117.309" cy="3.213" r="1.876"/>
            </g>
            <g transform="matrix(0.739394,0,0,0.739394,34.2431,0.0528603)">
                <circle cx="117.309" cy="3.213" r="1.876"/>
            </g>
            <g transform="matrix(0.739394,0,0,0.739394,38.017,-0.924739)">
                <circle cx="117.309" cy="3.213" r="1.876"/>
            </g>
        </g>
    </g>
    <g transform="matrix(1.00937,0,0,1.00937,-0.321372,-0.517063)">
        <g transform="matrix(22.7799,0,0,22.7799,33.2256,54.9332)">
            <path d="M0.406,-0.263L0.406,-0.384L0.717,-0.384L0.717,-0.099C0.687,-0.069 0.643,-0.044 0.586,-0.021C0.528,0.001 0.47,0.012 0.411,0.012C0.336,0.012 0.271,-0.003 0.215,-0.035C0.16,-0.066 0.118,-0.111 0.09,-0.17C0.062,-0.228 0.048,-0.292 0.048,-0.36C0.048,-0.435 0.063,-0.501 0.095,-0.559C0.126,-0.617 0.172,-0.661 0.232,-0.692C0.278,-0.716 0.335,-0.728 0.403,-0.728C0.492,-0.728 0.562,-0.709 0.612,-0.672C0.662,-0.635 0.694,-0.583 0.708,-0.518L0.564,-0.491C0.554,-0.526 0.535,-0.554 0.508,-0.574C0.48,-0.594 0.445,-0.604 0.403,-0.604C0.34,-0.604 0.29,-0.584 0.253,-0.544C0.215,-0.504 0.197,-0.445 0.197,-0.366C0.197,-0.281 0.216,-0.218 0.253,-0.175C0.291,-0.133 0.341,-0.111 0.402,-0.111C0.432,-0.111 0.462,-0.117 0.493,-0.129C0.523,-0.141 0.549,-0.155 0.571,-0.172L0.571,-0.263L0.406,-0.263Z" style="fill-rule:nonzero;"/>
        </g>
        <g transform="matrix(22.7799,0,0,22.7799,50.8306,54.9332)">
            <path d="M0.072,-0.716L0.216,-0.716L0.216,-0.328C0.216,-0.267 0.218,-0.227 0.222,-0.208C0.228,-0.179 0.243,-0.156 0.266,-0.138C0.289,-0.12 0.321,-0.111 0.361,-0.111C0.402,-0.111 0.433,-0.12 0.454,-0.136C0.475,-0.153 0.487,-0.174 0.492,-0.198C0.496,-0.223 0.498,-0.263 0.498,-0.32L0.498,-0.716L0.643,-0.716L0.643,-0.34C0.643,-0.254 0.639,-0.193 0.631,-0.158C0.623,-0.122 0.609,-0.092 0.588,-0.068C0.567,-0.043 0.539,-0.024 0.503,-0.01C0.468,0.005 0.422,0.012 0.366,0.012C0.297,0.012 0.246,0.004 0.21,-0.011C0.175,-0.027 0.147,-0.048 0.126,-0.073C0.106,-0.098 0.092,-0.125 0.086,-0.152C0.076,-0.193 0.072,-0.254 0.072,-0.334L0.072,-0.716Z" style="fill-rule:nonzero;"/>
        </g>
        <g transform="matrix(22.7799,0,0,22.7799,67.1676,54.9332)">
            <rect x="0.068" y="-0.716" width="0.145" height="0.716" style="fill-rule:nonzero;"/>
        </g>
        <g transform="matrix(22.7799,0,0,22.7799,73.3827,54.9332)">
            <path d="M0.234,-0L0.234,-0.595L0.021,-0.595L0.021,-0.716L0.59,-0.716L0.59,-0.595L0.378,-0.595L0.378,-0L0.234,-0Z" style="fill-rule:nonzero;"/>
        </g>
        <g transform="matrix(22.7799,0,0,22.7799,85.493,54.9332)">
            <path d="M0.718,-0L0.561,-0L0.499,-0.163L0.212,-0.163L0.153,-0L0,-0L0.279,-0.716L0.432,-0.716L0.718,-0ZM0.452,-0.283L0.354,-0.549L0.257,-0.283L0.452,-0.283Z" style="fill-rule:nonzero;"/>
        </g>
        <g transform="matrix(22.7799,0,0,22.7799,101.83,54.9332)">
            <path d="M0.073,-0L0.073,-0.716L0.377,-0.716C0.454,-0.716 0.51,-0.709 0.544,-0.697C0.579,-0.684 0.607,-0.661 0.627,-0.628C0.648,-0.595 0.659,-0.557 0.659,-0.515C0.659,-0.461 0.643,-0.417 0.611,-0.382C0.58,-0.347 0.533,-0.325 0.47,-0.316C0.501,-0.298 0.527,-0.278 0.547,-0.256C0.567,-0.234 0.595,-0.195 0.629,-0.14L0.717,-0L0.544,-0L0.439,-0.156C0.402,-0.211 0.377,-0.247 0.363,-0.261C0.35,-0.275 0.335,-0.285 0.32,-0.291C0.305,-0.296 0.28,-0.299 0.247,-0.299L0.218,-0.299L0.218,-0L0.073,-0ZM0.218,-0.413L0.325,-0.413C0.394,-0.413 0.437,-0.416 0.455,-0.422C0.472,-0.428 0.485,-0.438 0.495,-0.452C0.505,-0.466 0.51,-0.484 0.51,-0.506C0.51,-0.53 0.503,-0.549 0.49,-0.564C0.478,-0.579 0.459,-0.588 0.436,-0.592C0.424,-0.594 0.389,-0.595 0.331,-0.595L0.218,-0.595L0.218,-0.413Z" style="fill-rule:nonzero;"/>
        </g>
    </g>
    <g transform="matrix(1.00937,0,0,1.00937,18.3088,19.2716)">
        <g transform="matrix(22.7799,0,0,22.7799,33.2256,54.9332)">
            <path d="M0.068,-0.025L0.068,-0.08C0.118,-0.048 0.169,-0.032 0.22,-0.032C0.275,-0.032 0.316,-0.044 0.345,-0.066C0.373,-0.089 0.387,-0.12 0.387,-0.161C0.387,-0.197 0.378,-0.226 0.359,-0.247C0.34,-0.268 0.298,-0.297 0.235,-0.334C0.164,-0.375 0.119,-0.41 0.1,-0.438C0.081,-0.466 0.072,-0.498 0.072,-0.534C0.072,-0.584 0.091,-0.626 0.129,-0.66C0.168,-0.695 0.219,-0.712 0.283,-0.712C0.325,-0.712 0.367,-0.705 0.408,-0.691L0.408,-0.64C0.367,-0.659 0.323,-0.668 0.277,-0.668C0.229,-0.668 0.192,-0.656 0.164,-0.632C0.136,-0.608 0.122,-0.577 0.122,-0.54C0.122,-0.504 0.132,-0.476 0.151,-0.455C0.17,-0.433 0.211,-0.405 0.274,-0.368C0.339,-0.331 0.383,-0.298 0.405,-0.269C0.426,-0.24 0.437,-0.207 0.437,-0.17C0.437,-0.116 0.418,-0.072 0.381,-0.039C0.344,-0.005 0.291,0.012 0.223,0.012C0.199,0.012 0.171,0.008 0.14,0.001C0.108,-0.007 0.084,-0.015 0.068,-0.025Z" style="fill-rule:nonzero;"/>
        </g>
        <g transform="matrix(22.7799,0,0,22.7799,45.6878,54.9332)">
            <path d="M0.555,-0.023C0.499,0 0.439,0.012 0.378,0.012C0.282,0.012 0.204,-0.02 0.144,-0.084C0.083,-0.149 0.053,-0.232 0.053,-0.336C0.053,-0.45 0.086,-0.541 0.151,-0.609C0.217,-0.678 0.3,-0.712 0.401,-0.712C0.455,-0.712 0.506,-0.703 0.555,-0.686L0.555,-0.635C0.506,-0.657 0.454,-0.668 0.4,-0.668C0.312,-0.668 0.241,-0.638 0.186,-0.579C0.131,-0.519 0.103,-0.44 0.103,-0.341C0.103,-0.245 0.129,-0.17 0.182,-0.115C0.234,-0.06 0.301,-0.032 0.382,-0.032C0.446,-0.032 0.504,-0.045 0.555,-0.07L0.555,-0.023Z" style="fill-rule:nonzero;"/>
        </g>
        <g transform="matrix(22.7799,0,0,22.7799,60.9752,54.9332)">
            <path d="M0.539,-0L0.539,-0.336L0.138,-0.336L0.138,-0L0.09,-0L0.09,-0.7L0.138,-0.7L0.138,-0.38L0.539,-0.38L0.539,-0.7L0.587,-0.7L0.587,-0L0.539,-0Z" style="fill-rule:nonzero;"/>
        </g>
        <g transform="matrix(22.7799,0,0,22.7799,77.5307,54.9332)">
            <path d="M0.378,0.012C0.279,0.012 0.2,-0.021 0.141,-0.086C0.083,-0.152 0.053,-0.238 0.053,-0.343C0.053,-0.454 0.083,-0.544 0.144,-0.611C0.204,-0.678 0.287,-0.712 0.391,-0.712C0.486,-0.712 0.562,-0.68 0.62,-0.615C0.679,-0.55 0.708,-0.466 0.708,-0.361C0.708,-0.245 0.678,-0.154 0.618,-0.087C0.558,-0.021 0.478,0.012 0.378,0.012ZM0.383,-0.668C0.301,-0.668 0.234,-0.639 0.182,-0.58C0.129,-0.521 0.103,-0.444 0.103,-0.348C0.103,-0.252 0.128,-0.175 0.178,-0.118C0.228,-0.061 0.294,-0.032 0.377,-0.032C0.464,-0.032 0.532,-0.06 0.583,-0.117C0.633,-0.173 0.658,-0.252 0.658,-0.353C0.658,-0.452 0.634,-0.529 0.584,-0.585C0.535,-0.64 0.468,-0.668 0.383,-0.668Z" style="fill-rule:nonzero;"/>
        </g>
        <g transform="matrix(22.7799,0,0,22.7799,96.0105,54.9332)">
            <path d="M0.378,0.012C0.279,0.012 0.2,-0.021 0.141,-0.086C0.083,-0.152 0.053,-0.238 0.053,-0.343C0.053,-0.454 0.083,-0.544 0.144,-0.611C0.204,-0.678 0.287,-0.712 0.391,-0.712C0.486,-0.712 0.562,-0.68 0.62,-0.615C0.679,-0.55 0.708,-0.466 0.708,-0.361C0.708,-0.245 0.678,-0.154 0.618,-0.087C0.558,-0.021 0.478,0.012 0.378,0.012ZM0.383,-0.668C0.301,-0.668 0.234,-0.639 0.182,-0.58C0.129,-0.521 0.103,-0.444 0.103,-0.348C0.103,-0.252 0.128,-0.175 0.178,-0.118C0.228,-0.061 0.294,-0.032 0.377,-0.032C0.464,-0.032 0.532,-0.06 0.583,-0.117C0.633,-0.173 0.658,-0.252 0.658,-0.353C0.658,-0.452 0.634,-0.529 0.584,-0.585C0.535,-0.64 0.468,-0.668 0.383,-0.668Z" style="fill-rule:nonzero;"/>
        </g>
        <g transform="matrix(22.7799,0,0,22.7799,114.49,54.9332)">
            <path d="M0.09,-0L0.09,-0.7L0.138,-0.7L0.138,-0.044L0.419,-0.044L0.419,-0L0.09,-0Z" style="fill-rule:nonzero;"/>
        </g>
    </g>
</svg>
