<?xml version="1.0" encoding="utf-8"?><svg xmlns="http://www.w3.org/2000/svg" xmlns:xlink="http://www.w3.org/1999/xlink"><symbol viewBox="0 0 512 512" id="book" xmlns="http://www.w3.org/2000/svg"><path d="M59.84 356.33c36.26 3.32 73.79 12.58 111.16 27.78v39.09L17.75 395.94V71.8l42.09 7.48v277.05zm195.96 73.73v8.22L225 432.8v-22.44a494.177 494.177 0 0130.74 18.98v.8c.02-.03.04-.05.06-.08z"/><path d="M256.953 122.685v307.458l-.577-.101-.332-.058-.173-.029-.072-.014-.058-.014V124.128c.014-.029.043-.058.058-.087v-1.558l.087.014.159.029.332.058.389.072.187.029zM89.83 324.04c23.76-.51 52.4 7.6 81.17 24.33v35.74c-37.37-15.2-74.9-24.46-111.16-27.78V48.88c9.91.9 19.92 2.26 29.99 4.06v271.1zm165.91 104.27v1.03A494.177 494.177 0 00225 410.36v-19.47c10.81 11.09 21.16 23.57 30.74 37.42z"/><path d="M256.953 122.685v307.458c-.087-.058-.159-.115-.245-.159a4.234 4.234 0 00-.332-.231 2.594 2.594 0 00-.26-.159 1.98 1.98 0 00-.317-.216c-.014-.014-.043-.029-.058-.043V124.128c.014-.029.043-.058.058-.087v-1.659c-.188-.289-.375-.577-.591-.851.202.115.389.245.591.389.187.115.389.245.577.375.115.072.216.144.332.231.029.014.072.043.101.058.043.044.101.073.144.101z"/><path d="M255.8 122.38v1.66l-.06.09v304.18c-9.58-13.85-19.93-26.33-30.74-37.42-17.23-17.68-35.64-31.86-54-42.52-28.77-16.73-57.41-24.84-81.17-24.33V18.02c46.23-.97 110.95 30.67 159.18 94.91 2.1 2.8 4.18 5.67 6.2 8.6.21.28.4.56.59.85z"/><path d="M257.011 124.128v306.015c-.014-.029-.043-.058-.058-.087-.029-.029-.043-.072-.072-.101-.087-.115-.159-.245-.245-.361a8.062 8.062 0 00-.26-.361 18.226 18.226 0 00-.577-.837c0-.029-.029-.058-.058-.087V124.128c.014-.029.043-.058.058-.087v-1.659c.043.043.072.072.087.115.029.029.043.058.058.087.029.029.043.043.043.072.144.188.274.375.389.563.202.274.389.548.577.822.014.029.043.058.058.087z"/><path d="M495 71.796v324.147l-238.047 42.336v-8.222c.014.029.043.058.058.087v-.808c64.016-42.797 131.941-67.146 195.899-73.002V79.282L495 71.796z"/><path d="M257.011 124.128v305.799l-.058.014-.072.014-.173.029-.332.058-.577.101V122.685l.187-.029.389-.072.332-.058.159-.029.087-.014v1.558c.014.029.043.058.058.087z"/><path d="M452.909 48.875v307.458c-63.958 5.856-131.883 30.205-195.899 73.002v-1.024c48.784-70.55 117.487-105.299 165.91-104.275V52.943a353.342 353.342 0 0129.989-4.068z"/><path d="M256.953 124.041c.014.029.043.058.058.087v305.207c-.014.014-.043.029-.058.043-.101.058-.216.13-.317.216-.087.043-.173.101-.26.159a4.645 4.645 0 00-.332.231c-.087.043-.159.101-.245.159V122.685c.043-.029.101-.058.144-.101.029-.014.072-.043.101-.058.115-.087.216-.159.332-.231.188-.13.389-.26.577-.375.202-.144.389-.274.591-.389-.216.274-.404.562-.591.851v1.659z"/><path d="M422.921 18.021v306.015c-48.423-1.024-117.127 33.724-165.91 104.275V124.128c-.014-.029-.043-.058-.058-.087v-1.659c.188-.289.375-.577.591-.851a257.245 257.245 0 016.217-8.597c48.221-64.246 112.93-95.879 159.16-94.913zM225 390.89V495l-27-27-27 27V348.37c18.36 10.66 36.77 24.84 54 42.52z"/></symbol><symbol viewBox="0 0 631.742 631.742" id="chat" xmlns="http://www.w3.org/2000/svg"><path d="M256.646 256.646c16.346 0 29.613-13.247 29.613-29.613 0-16.346-13.267-29.613-29.613-29.613-16.347 0-29.613 13.267-29.613 29.613-.001 16.365 13.266 29.613 29.613 29.613zm118.451 0c16.347 0 29.613-13.247 29.613-29.613 0-16.346-13.267-29.613-29.613-29.613s-29.612 13.267-29.612 29.613c-.001 16.365 13.266 29.613 29.612 29.613zM200.104 448.872c15.359 2.488 50.243 5.192 66.412 5.192 141.748 0 236.904-105.481 236.904-229.5S384.514 0 266.516 0C124.572 0 9.871 100.546 9.871 224.564c0 71.841 27.382 132.844 78.968 176.77V513.29l111.265-64.418zM49.355 227.032c0-103.586 93.833-187.548 217.161-187.548 98.177 0 197.419 83.962 197.419 187.548s-77.487 187.549-197.419 187.549c-17.629 0-54.409-2.014-70.814-5.43l-67.379 44.913V384.1c-48.151-39.07-78.968-91.268-78.968-157.068zm492.541-46.63c.375 5.666 1.007 11.273 1.007 17.018 0 12.556-1.204 24.855-2.981 36.997 26.573 31.113 42.465 69.432 42.465 111.068 0 65.8-39.325 123.604-98.709 157.066v69.966l-67.38-44.913c-16.405 3.415-33.442 5.429-51.072 5.429-51.131 0-78.296-15.359-115.411-40.905-10.759.869-21.637 1.422-32.653 1.422-7.857 0-15.557-.573-23.296-1.007 46.986 45.959 95.334 75.039 171.36 75.039 16.169 0 31.942-1.461 47.282-3.969l110.653 68.13V519.766c59.996-41.103 98.71-104.908 98.71-176.77 0-64.042-30.798-121.669-79.975-162.594zm-403.702 76.244c16.346 0 29.613-13.247 29.613-29.613 0-16.346-13.267-29.613-29.613-29.613-16.347 0-29.613 13.267-29.613 29.613 0 16.365 13.266 29.613 29.613 29.613z"/></symbol><symbol viewBox="0 0 62 64" id="cup" xmlns="http://www.w3.org/2000/svg"><g stroke-width="2"><path d="M12.5 5H1.1s-2.4 30 24.5 30M50.1 5h10.8s2.5 30-23.6 30"/><path d="M20.2 56v-2c0-1.1.9-2 2.1-2l4.1-1c2-5 2.4-7.9 2.1-12h-1c-1.2 0-2.1-.9-2.1-2.1v-3.1C14.3 29 12 11.4 12 1h39c0 10.5-2.3 28.1-13.4 32.8v3.1c0 1.2-1 2.1-2.1 2.1h-.8c-.3 4.1 0 7.1 2 12l5.1 1c1.1 0 2.1.9 2.1 2v2M16.8 5.2s.5 17.9 6.9 22.8M40 56h6.1c1.1 0 3.9 5 3.9 5 0 1.1-.9 2-1.9 2H16c-1.1 0-1.9-.9-1.9-2 0 0 2.8-5 3.9-5h6.1"/></g></symbol><symbol fill-rule="evenodd" clip-rule="evenodd" stroke-linecap="round" stroke-linejoin="round" stroke-miterlimit="1.5" viewBox="0 0 130 69" id="logo" xmlns="http://www.w3.org/2000/svg"><path d="M56.773 22.016l48.459-12.95 1.418-2.524 11.668-3.43 4.921 6.7.023 1.118a1.485 1.485 0 01-1.655 1.505l-1.638-.19-4.026-3.061a3.348 3.348 0 00-2.963-.55L54.674 25.607c-3.386.956-2.9.629-8.13-1.953 0 0-6.786-1.954-7.133 5.76-.255 5.673-4.825 4.997-10.421 4.038-8.6-1.474-11.31 17.523 1.124 18.696C15.076 58.625 4.269 39.25 2.486 35.488c-3.776-7.966.103-14.692.103-14.692s4.491-9.662 22.454-2.178c6.59 2.747 11.704-2.72 11.704-2.72 7.87-10.426 17.434-10.56 15.649 2.313-.775 5.587 4.377 3.805 4.377 3.805zM108.327 6.733l-.966-2.317m5.119 1.014l-.966-2.317m4.872 1.18l-.966-2.317"/><path d="M108.59 3.345a.347.347 0 00-.442-.212l-1.957.687a.347.347 0 00-.213.442l.154.438a.347.347 0 00.442.212l1.957-.687a.347.347 0 00.213-.442l-.154-.438zm4.153-1.137a.347.347 0 00-.442-.212l-1.957.687a.347.347 0 00-.213.442l.154.438a.347.347 0 00.442.212l1.957-.687a.347.347 0 00.213-.442l-.154-.438zm3.86-1.234a.347.347 0 00-.442-.212l-1.957.687a.347.347 0 00-.213.442l.154.438a.347.347 0 00.443.212l1.956-.687a.347.347 0 00.213-.442l-.154-.438z"/><path d="M45.13 41.85v7.133c-.99.507-1.915.859-2.773 1.057-.837.22-1.717.33-2.62.33-2.4 0-4.139-.66-5.262-2.003-1.122-1.321-1.673-3.104-1.673-5.372 0-1.74.308-3.17.947-4.293.638-1.123 1.475-1.937 2.554-2.444 1.078-.506 2.29-.77 3.654-.77.903 0 1.761.11 2.576.33.815.242 1.585.572 2.268 1.013l-1.277 2.223c-1.123-.66-2.268-.99-3.435-.99-1.365 0-2.377.418-3.06 1.232-.682.837-1.013 2.026-1.013 3.567 0 1.63.309 2.84.947 3.632.639.815 1.651 1.211 3.016 1.211.793 0 1.475-.11 2.114-.352v-2.972h-3.038l.352-2.532h5.724zm8.565 8.52c-1.431 0-2.62-.264-3.545-.814-.924-.529-1.585-1.255-2.003-2.18-.418-.903-.639-1.96-.639-3.126v-8.454h3.038v8.08c0 1.233.243 2.18.749 2.862.506.704 1.365 1.034 2.598 1.034 1.189 0 2.003-.33 2.487-1.034.485-.683.727-1.563.727-2.642v-8.3h3.038v8.388c0 1.453-.286 2.642-.837 3.544a4.875 4.875 0 01-2.267 2.004c-.969.418-2.092.638-3.346.638zm9.356-14.574h3.038v14.266h-3.038zm17.039 0v2.664h-4.534v11.602h-3.038V38.46H67.96v-2.664h12.13zm7.574 0l5.13 14.09v.176H89.47l-1.145-3.412H83.04l-1.122 3.412h-3.28v-.176l5.129-14.09h3.896zm-3.786 8.344h3.61l-1.827-5.438-1.783 5.438zm22.08 5.746v.176h-3.5l-3.567-5.196h-1.21v5.196h-3.039V35.796h4.778c1.255 0 2.311.198 3.17.572.836.397 1.453.925 1.871 1.586.418.682.617 1.43.617 2.29 0 .99-.243 1.848-.749 2.575-.506.726-1.233 1.277-2.201 1.63l3.83 5.437zM97.68 42.51h1.365c.903 0 1.608-.176 2.092-.507.484-.33.726-.902.726-1.673 0-.682-.22-1.189-.66-1.519-.418-.33-1.035-.506-1.805-.506H97.68v4.205zM54.138 68.258a7.837 7.837 0 01-2.597-.418 7.832 7.832 0 01-2.29-1.189l.594-.88a6.858 6.858 0 002.114 1.078 7.073 7.073 0 002.201.353c1.233 0 2.158-.243 2.752-.749.595-.506.903-1.189.903-2.07 0-.594-.132-1.078-.418-1.452a3.334 3.334 0 00-1.123-.925c-.463-.242-1.123-.528-1.96-.836l-.418-.133c-.902-.33-1.629-.66-2.18-.946a4.082 4.082 0 01-1.364-1.145c-.353-.484-.529-1.079-.529-1.805 0-.749.22-1.41.639-1.96.396-.55.968-.946 1.65-1.254.683-.287 1.432-.419 2.246-.419.815 0 1.564.11 2.29.308.727.22 1.453.573 2.202 1.057l-.595.88a8.3 8.3 0 00-1.915-.902 6.725 6.725 0 00-2.026-.286c-.528 0-1.034.088-1.54.264a2.81 2.81 0 00-1.233.815c-.33.374-.485.836-.485 1.409 0 .484.11.88.33 1.21.199.33.529.617.991.86.44.241 1.057.527 1.871.814l.419.154c.946.33 1.695.66 2.267.946a4.274 4.274 0 011.497 1.255c.419.55.617 1.233.617 2.092 0 .814-.198 1.497-.573 2.091-.374.573-.946 1.013-1.673 1.321-.726.308-1.629.462-2.664.462zm13.518 0c-1.365 0-2.532-.308-3.479-.924-.968-.617-1.695-1.475-2.18-2.598-.484-1.1-.726-2.4-.726-3.875 0-1.65.308-3.038.903-4.139.594-1.1 1.387-1.915 2.356-2.443a6.725 6.725 0 013.148-.77c.858 0 1.65.11 2.377.33a9.61 9.61 0 012.136.946l-.55.925a9.66 9.66 0 00-1.85-.837c-.616-.198-1.299-.286-2.091-.286-1.123 0-2.07.264-2.862.793a4.706 4.706 0 00-1.74 2.201c-.396.947-.594 2.025-.594 3.236 0 1.233.198 2.334.573 3.28a4.94 4.94 0 001.739 2.246c.77.55 1.717.837 2.862.837.748 0 1.475-.11 2.113-.309a9.643 9.643 0 001.981-.858l.507.902c-1.497.903-3.038 1.343-4.623 1.343zM84.761 53.75h1.233v14.266h-1.233v-6.714H76v6.714h-1.232V53.75H76v6.495h8.762V53.75zm10.898 14.508c-1.343 0-2.51-.308-3.456-.946-.947-.617-1.674-1.475-2.18-2.598-.506-1.123-.749-2.4-.749-3.875 0-1.65.309-3.016.925-4.117.595-1.078 1.41-1.893 2.4-2.421a6.684 6.684 0 013.214-.793c1.343 0 2.51.308 3.456.925.947.638 1.674 1.497 2.18 2.62.506 1.122.748 2.4.748 3.874 0 1.651-.308 3.016-.902 4.117-.595 1.1-1.387 1.915-2.378 2.422a6.856 6.856 0 01-3.258.792zm.022-1.056c1.123 0 2.091-.265 2.884-.815.792-.528 1.387-1.255 1.783-2.201.418-.947.617-2.026.617-3.237 0-1.233-.199-2.333-.573-3.28-.374-.969-.946-1.74-1.717-2.29-.77-.55-1.717-.814-2.84-.814-1.145 0-2.113.264-2.906.792-.815.529-1.409 1.255-1.805 2.224-.419.925-.617 2.025-.617 3.236 0 1.211.198 2.312.573 3.28a4.888 4.888 0 001.739 2.268c.77.55 1.717.837 2.862.837zm15.19 1.056c-1.343 0-2.51-.308-3.456-.946-.947-.617-1.674-1.475-2.18-2.598-.506-1.123-.748-2.4-.748-3.875 0-1.65.308-3.016.924-4.117.595-1.078 1.41-1.893 2.4-2.421a6.684 6.684 0 013.214-.793c1.343 0 2.51.308 3.456.925.947.638 1.674 1.497 2.18 2.62.506 1.122.749 2.4.749 3.874 0 1.651-.309 3.016-.903 4.117-.595 1.1-1.387 1.915-2.378 2.422a6.856 6.856 0 01-3.258.792zm.022-1.056c1.123 0 2.091-.265 2.884-.815.793-.528 1.387-1.255 1.783-2.201.419-.947.617-2.026.617-3.237 0-1.233-.198-2.333-.573-3.28-.374-.969-.946-1.74-1.717-2.29-.77-.55-1.717-.814-2.84-.814-1.145 0-2.113.264-2.906.792-.814.529-1.409 1.255-1.805 2.224-.418.925-.617 2.025-.617 3.236 0 1.211.199 2.312.573 3.28a4.888 4.888 0 001.739 2.268c.77.55 1.717.837 2.862.837zm11.03-.265h7.243v1.08h-8.475V53.75h1.232v13.187z" fill-rule="nonzero"/></symbol><symbol viewBox="0 0 48 48" id="mark" xmlns="http://www.w3.org/2000/svg"><path d="M14 5h13.558L37 15.387V40a3 3 0 01-3 3H14a3 3 0 01-3-3V8a3 3 0 013-3zM15 33h18m-18 4h12"/><path d="M15 28l5-12 5 12m-8.75-3h7.5M30 22v6m-3-3h6"/></symbol><symbol viewBox="0 0 16 28" id="socials--facebook" xmlns="http://www.w3.org/2000/svg"><path d="M14.312 15.914L15.088 11h-4.854V7.812c0-1.344.677-2.656 2.851-2.656h2.208V.973S13.29.64 11.376.64c-3.999 0-6.61 2.354-6.61 6.614V11H.322v4.914h4.444v11.88A18.12 18.12 0 007.5 28c.93 0 1.842-.07 2.734-.206v-11.88h4.078z"/></symbol><symbol viewBox="0 0 23 22" id="socials--skype" xmlns="http://www.w3.org/2000/svg"><path d="M11.546 17.573c-3.735 0-5.441-1.848-5.441-3.204 0-.323.136-.633.377-.855a1.23 1.23 0 01.9-.32c1.598 0 1.18 2.33 4.164 2.33 1.524 0 2.42-.892 2.42-1.73 0-.504-.296-1.079-1.303-1.309l-3.33-.816C6.655 11.007 6.19 9.562 6.19 8.22c0-2.783 2.62-3.79 5.115-3.79 2.298 0 5.03 1.233 5.03 2.902 0 .719-.618 1.103-1.336 1.103-1.366 0-1.136-1.862-3.883-1.862-1.366 0-2.084.622-2.084 1.492s1.063 1.165 1.995 1.363l2.458.54c2.695.589 3.413 2.124 3.413 3.595 0 2.261-1.803 4.009-5.356 4.009h.004zm10.311-4.786c.107-.594.16-1.195.16-1.798.012-3.027-1.357-5.904-3.739-7.855C15.896 1.183 12.745.358 9.676.882A6.33 6.33 0 006.575.08C4.34.094 2.28 1.257 1.164 3.137a5.961 5.961 0 00-.02 6.08c-.616 3.292.465 6.669 2.894 9.042 2.429 2.372 5.9 3.44 9.291 2.859a6.33 6.33 0 003.098.802c2.234-.014 4.292-1.177 5.409-3.056a5.961 5.961 0 00.021-6.077z"/></symbol><symbol viewBox="0 0 19 16" id="socials--telegram" xmlns="http://www.w3.org/2000/svg"><path fill-rule="evenodd" clip-rule="evenodd" d="M1.695 6.82c4.956-2.159 8.261-3.582 9.915-4.27C16.33.587 17.31.245 17.95.234c.142-.002.456.033.66.198.172.14.219.328.242.46.022.132.05.434.028.67-.256 2.688-1.363 9.21-1.926 12.222-.238 1.273-.707 1.7-1.162 1.742-.987.091-1.737-.652-2.693-1.279-1.496-.98-2.341-1.591-3.794-2.548-1.678-1.106-.59-1.714.367-2.708.25-.26 4.6-4.216 4.684-4.575.01-.045.02-.212-.08-.3-.099-.089-.245-.059-.351-.035-.15.034-2.54 1.614-7.171 4.74-.678.466-1.293.693-1.844.68-.607-.012-1.774-.342-2.642-.624C1.203 8.53.358 8.347.43 7.76c.038-.306.46-.62 1.264-.94z"/></symbol><symbol viewBox="0 0 22 24" id="socials--tiktok" xmlns="http://www.w3.org/2000/svg"><path d="M15.487 8.215a9.286 9.286 0 005.43 1.744V6.881a5.447 5.447 0 01-2.882-1.659 5.476 5.476 0 01-2.488-3.694h-2.839v15.62a3.301 3.301 0 01-3.294 3.295 3.287 3.287 0 01-2.623-1.305 3.307 3.307 0 01-1.813-2.954 3.3 3.3 0 014.295-3.151V9.92c-3.908.08-7.05 3.285-7.05 7.226 0 1.968.782 3.751 2.052 5.054a7.15 7.15 0 004.01 1.223c3.978 0 7.203-3.236 7.203-7.228v-7.98z"/><path d="M20.918 6.88v-.832a5.416 5.416 0 01-2.883-.826 5.441 5.441 0 002.883 1.659zm-5.37-5.352a5.563 5.563 0 01-.06-.449V.576h-3.92v15.62a3.3 3.3 0 01-3.295 3.295 3.271 3.271 0 01-1.482-.353 3.286 3.286 0 002.623 1.305 3.3 3.3 0 003.294-3.296V1.528zM9.272 9.921v-.886a7.246 7.246 0 00-.988-.067c-3.978 0-7.203 3.236-7.203 7.228A7.228 7.228 0 004.275 22.2a7.217 7.217 0 01-2.053-5.054c0-3.94 3.143-7.145 7.051-7.226z"/></symbol></svg>